# xmcd
#
# Track frame offsets: 
#        150
#        12845
#        23602
#        34270
#        44955
#        54912
#        65527
#        76455
#        86255
#        99980
#        113260
#        125647
#        137410
#        149672
#        160580
#
# Disc length: 2272 seconds
#
# Revision: 3
# Processed by: cddbd v1.5.2PL0 Copyright (c) Steve Scherf et al.
# Submitted via: ExactAudioCopy v0.99pb5
#
DISCID=bb08de0f
DTITLE=Various Artist - Classic Country Vol. 16 The Fifties Legends Disc 1
DYEAR=1999
DGENRE=Country
TTITLE0=Johnny Cash - Folsom Prison Blues
TTITLE1=George Jones - Who Shot Sam
TTITLE2=Webb Pierce - More And More
TTITLE3=Porter Wagoner - Eat Drink And Be Merry (Tomorrow You'll Cry)
TTITLE4=Jim Reeves - Blue Boy
TTITLE5=Slim Whitman - Rose-Marie
TTITLE6=Carl Smith - (When You Feel Like You're In Love) Don't Just St
TTITLE6=and There
TTITLE7=Hank Thompson And His Brazos Valley Boys - The New Green Light
TTITLE8=Red Foley - Birmingham Bounce
TTITLE9=Lefty Frizzell - If You've Got The Money I've Got The Time
TTITLE10=Hank Williams - Cold Cold Heart
TTITLE11=Eddy Arnold - Just Call Me Lonesome
TTITLE12=Elvis Presley - Love Me Tender
TTITLE13=Kitty Wells - Searching (For Someone Like You)
TTITLE14=Johnnie And Jack - Goodnight Sweetheart Goodnight
EXTD=
EXTT0=
EXTT1=
EXTT2=
EXTT3=
EXTT4=
EXTT5=
EXTT6=
EXTT7=
EXTT8=
EXTT9=
EXTT10=
EXTT11=
EXTT12=
EXTT13=
EXTT14=
PLAYORDER=
